<svg xmlns="http://www.w3.org/2000/svg" width="381" height="303" viewBox="0 0 381 303">
<g>
<path d="M 234.00 288.99 C224.34,290.10 177.21,291.12 169.00,290.40 C147.03,288.48 139.92,287.67 129.50,285.92 C96.91,280.42 68.74,270.40 49.50,257.45 C31.62,245.41 19.69,230.26 15.60,214.41 C14.66,210.75 13.03,193.58 11.54,171.41 C10.16,151.11 8.53,129.09 7.91,122.48 C6.18,104.09 8.65,91.88 16.90,78.09 C33.65,50.12 73.88,28.47 125.65,19.58 C155.16,14.51 204.00,13.09 234.80,16.40 C281.22,21.39 318.00,33.29 342.11,51.09 C357.09,62.17 369.20,77.82 374.14,92.50 C376.18,98.55 376.49,101.33 376.42,113.00 C376.32,128.32 371.54,199.21 369.96,208.83 C363.08,250.59 313.40,279.88 234.00,288.99 ZM 78.16 132.66 L 83.33 137.89 L 88.30 133.42 C101.03,121.97 123.04,113.74 152.68,109.33 C169.30,106.86 215.55,106.84 232.00,109.29 C261.55,113.69 281.05,120.86 295.48,132.61 C301.77,137.74 302.36,137.66 308.43,130.94 L 312.20 126.78 L 307.85 122.29 C286.88,100.67 242.35,89.67 182.50,91.32 C141.82,92.45 113.75,98.42 92.66,110.44 C84.61,115.03 73.00,124.40 73.00,126.32 C73.00,126.93 75.32,129.79 78.16,132.66 ZM 197.00 264.66 L 197.00 278.31 L 211.25 277.66 C241.57,276.28 278.55,269.64 295.57,262.53 L 299.00 261.10 L 299.00 247.98 C299.00,235.95 298.86,234.91 297.25,235.42 C278.76,241.23 266.30,244.05 246.50,246.91 C235.57,248.49 206.33,250.97 198.25,251.00 C197.31,251.00 197.00,254.40 197.00,264.66 ZM 166.00 277.36 C167.93,277.56 173.55,277.67 178.50,277.61 L 187.50 277.50 L 187.78 264.35 L 188.06 251.19 L 178.28 250.59 C148.98,248.80 129.37,246.28 111.00,241.94 C103.20,240.09 90.69,236.58 87.37,235.31 C86.25,234.88 86.00,237.24 86.00,248.19 L 86.00 261.59 L 94.25 264.24 C112.28,270.04 131.96,274.06 151.60,275.96 C157.59,276.54 164.07,277.17 166.00,277.36 ZM 197.00 211.28 L 197.00 238.27 L 208.75 237.58 C240.22,235.73 268.33,230.89 291.25,223.38 L 299.00 220.84 L 299.00 208.30 C299.00,195.82 298.99,195.77 296.75,196.28 C295.51,196.56 288.38,198.37 280.91,200.30 C260.81,205.48 230.33,210.00 215.40,210.00 C212.04,210.00 206.53,210.29 203.15,210.64 ZM 164.50 236.92 C170.00,237.38 177.43,237.70 181.00,237.63 L 187.50 237.50 L 188.06 211.29 L 181.88 210.65 C178.49,210.29 172.96,210.00 169.60,209.99 C154.16,209.97 124.04,205.51 104.00,200.29 C96.57,198.36 89.49,196.55 88.25,196.27 C86.01,195.77 86.00,195.82 86.00,208.35 L 86.00 220.93 L 97.04 224.43 C114.72,230.02 141.54,234.99 164.50,236.92 ZM 68.66 173.97 L 78.50 178.96 L 81.38 175.73 C82.97,173.95 87.38,169.27 91.19,165.33 L 98.11 158.16 L 89.80 153.84 C81.16,149.35 72.82,143.14 67.24,137.05 C63.05,132.47 57.00,120.56 57.00,116.87 L 57.00 114.00 L 20.25 114.00 L 20.71 118.75 C22.74,139.60 39.97,159.45 68.66,173.97 ZM 300.41 172.70 L 306.35 178.90 L 317.21 173.35 C336.13,163.67 351.41,150.06 357.99,137.02 C361.41,130.25 364.00,121.75 364.00,117.32 L 364.00 114.00 L 328.24 114.00 L 327.07 118.62 C323.49,132.85 311.39,145.80 293.12,154.96 L 286.75 158.16 L 290.61 162.33 C292.74,164.62 297.15,169.29 300.41,172.70 ZM 162.50 196.91 C168.55,197.38 176.65,197.70 180.50,197.63 L 187.50 197.50 L 187.78 185.91 L 188.06 174.31 L 175.45 173.67 C156.60,172.72 139.09,170.21 124.00,166.30 C122.36,165.87 120.88,165.48 119.52,165.12 C111.73,163.06 108.38,162.17 105.72,163.16 C103.24,164.09 101.38,166.64 97.11,171.39 C92.49,176.53 88.79,181.13 88.89,181.62 C89.35,183.98 117.32,191.13 137.50,194.04 C145.20,195.16 156.45,196.45 162.50,196.91 ZM 197.00 174.31 L 197.00 198.28 L 210.25 197.59 C227.22,196.70 239.50,195.40 254.50,192.89 C274.12,189.61 296.94,183.31 296.11,181.40 C295.89,180.91 291.75,176.26 286.92,171.09 L 278.13 161.67 L 270.81 163.79 C251.90,169.28 231.76,172.55 210.25,173.64 ZM 185.13 162.97 C190.53,164.10 199.66,163.39 205.27,161.41 C210.15,159.68 215.58,154.82 216.44,151.39 C217.43,147.42 214.62,142.45 209.77,139.60 C206.36,137.61 197.63,135.00 194.36,135.00 C194.16,135.00 194.00,133.43 194.00,131.50 L 194.00 128.00 L 221.85 128.00 C248.27,128.00 249.78,128.10 251.47,129.97 C253.23,131.92 253.12,131.94 240.62,132.22 L 227.99 132.50 L 231.84 138.50 C233.97,141.80 237.79,147.76 240.33,151.75 C244.44,158.19 247.00,160.65 247.00,158.16 C247.00,157.69 243.92,152.41 240.17,146.41 L 233.33 135.50 L 245.32 135.22 C256.52,134.95 257.46,135.08 259.66,137.15 C262.62,139.93 261.77,140.80 255.77,141.19 L 251.03 141.50 L 257.27 148.31 L 263.50 155.12 L 271.50 152.14 L 268.04 152.07 C265.46,152.02 263.63,151.06 260.79,148.30 C258.71,146.26 257.00,144.24 257.00,143.80 C257.00,143.36 258.84,143.00 261.10,143.00 C264.46,143.00 266.02,143.72 269.77,147.03 C273.97,150.72 276.63,151.82 275.83,149.52 C275.65,149.00 269.93,143.28 263.12,136.79 L 250.73 125.00 L 133.84 125.00 L 120.92 137.19 C113.81,143.90 108.00,149.75 108.00,150.19 C108.00,152.12 110.88,150.70 114.50,147.00 C118.00,143.42 118.92,143.00 123.25,143.00 L 128.10 143.00 L 124.34 147.50 C121.22,151.23 119.97,152.01 117.04,152.07 L 113.50 152.14 L 117.48 153.60 L 121.46 155.05 L 126.23 149.78 C133.89,141.32 133.96,141.00 128.04,141.00 C122.40,141.00 121.94,140.34 125.35,137.14 C127.54,135.09 128.50,134.95 139.39,135.22 L 151.08 135.50 L 144.56 146.00 C137.82,156.85 137.19,158.23 138.79,158.76 C139.58,159.03 156.00,133.96 156.00,132.49 C156.00,132.22 150.31,132.00 143.35,132.00 C130.75,132.00 130.70,131.99 132.50,130.00 C134.23,128.09 135.58,128.00 162.65,128.00 L 191.00 128.00 L 191.00 131.42 C191.00,134.49 190.66,134.91 187.75,135.46 C178.97,137.13 175.49,138.56 171.87,142.01 C168.93,144.81 168.00,146.47 168.00,148.94 C168.00,155.31 174.71,160.81 185.13,162.97 ZM 327.98 102.43 L 328.95 105.00 L 345.92 105.00 C355.25,105.00 363.13,104.59 363.44,104.10 C363.75,103.60 363.10,100.34 362.01,96.85 C356.49,79.23 341.12,63.43 318.00,51.61 C317.00,51.10 316.08,50.62 315.22,50.18 C308.61,46.77 305.69,45.27 303.21,45.80 C300.92,46.29 299.00,48.52 294.90,52.60 L 287.04 60.42 L 294.01 63.96 C308.83,71.49 319.74,81.76 324.65,92.78 C325.94,95.68 327.00,98.46 327.00,98.96 C327.00,99.46 327.44,101.02 327.98,102.43 ZM 21.42 100.77 L 20.74 105.05 L 38.51 104.77 L 56.27 104.50 L 57.62 99.25 C59.57,91.61 62.25,86.92 68.56,80.11 C74.53,73.66 82.57,67.82 91.51,63.45 C94.53,61.97 97.00,60.41 97.00,59.98 C97.00,59.55 93.57,55.99 89.37,52.07 C85.35,48.32 83.48,46.32 81.31,45.90 C79.05,45.47 76.47,46.75 70.81,49.56 C70.11,49.91 69.37,50.28 68.57,50.67 C42.47,63.53 24.26,82.88 21.42,100.77 ZM 272.50 55.30 C274.70,56.11 276.89,56.82 277.36,56.88 C277.84,56.95 281.78,53.52 286.11,49.26 L 294.00 41.53 L 290.25 40.21 C282.53,37.49 262.49,33.03 249.15,31.06 C237.52,29.34 209.50,27.04 199.75,27.01 L 197.00 27.00 L 197.00 44.69 L 211.49 45.35 C233.41,46.34 259.82,50.65 272.50,55.30 ZM 98.62 49.12 C103.89,54.42 106.98,56.83 107.99,56.42 C111.53,54.98 132.25,50.08 141.00,48.62 C150.72,46.99 169.40,45.18 181.00,44.74 L 187.50 44.50 L 187.79 35.65 L 188.08 26.79 L 174.29 27.47 C147.36,28.78 119.90,32.80 101.50,38.11 C97.65,39.22 93.66,40.37 92.63,40.67 C91.08,41.12 92.11,42.57 98.62,49.12 ZM 307.00 204.70 C307.00,212.41 307.38,217.00 308.02,217.00 C309.94,217.00 325.46,208.75 332.49,203.99 C345.20,195.40 353.87,185.31 357.98,174.33 C360.10,168.66 361.78,158.00 360.55,158.00 C360.15,158.00 356.60,160.96 352.66,164.58 C343.17,173.31 330.53,181.58 317.57,187.54 L 307.00 192.40 ZM 65.43 211.63 C70.92,214.51 75.77,216.64 76.21,216.37 C76.64,216.10 77.00,210.54 77.00,204.02 L 77.00 192.15 L 66.49 187.13 C52.31,180.36 39.99,172.16 31.25,163.69 C27.26,159.83 23.80,156.87 23.55,157.12 C23.30,157.37 23.52,160.71 24.05,164.54 C25.43,174.58 30.52,184.33 38.78,192.78 C46.68,200.86 51.88,204.53 65.43,211.63 ZM 307.67 257.33 C308.60,258.27 322.04,250.80 331.30,244.18 C339.84,238.08 348.80,228.30 352.45,221.10 C355.47,215.13 358.00,206.53 358.00,202.23 L 358.00 198.82 L 351.25 205.01 C342.23,213.28 330.52,220.95 317.62,227.04 L 307.00 232.04 L 307.00 244.36 C307.00,251.13 307.30,256.97 307.67,257.33 ZM 65.90 252.17 C70.63,254.82 75.06,257.00 75.75,257.00 C76.69,257.00 77.00,253.79 76.99,244.25 L 76.98 231.50 L 68.35 227.55 C53.70,220.85 41.88,213.08 31.10,203.05 C28.68,200.80 26.49,199.17 26.24,199.43 C25.06,200.61 28.31,213.19 31.42,219.50 C37.54,231.89 48.86,242.62 65.90,252.17 ZM 262.50 70.33 C274.79,73.59 275.00,73.59 275.00,70.08 C275.00,67.48 274.48,66.99 270.25,65.60 C256.44,61.07 234.80,57.37 216.96,56.50 C210.66,56.19 203.56,55.73 201.19,55.48 L 196.88 55.02 L 197.19 58.76 L 197.50 62.50 L 213.28 63.22 C230.45,64.00 248.40,66.60 262.50,70.33 ZM 110.00 70.52 C110.00,73.85 110.08,73.92 112.75,72.90 C124.42,68.45 151.28,64.07 172.50,63.15 L 187.50 62.50 L 187.80 58.91 L 188.10 55.32 L 179.80 55.67 C156.32,56.66 132.18,60.23 116.75,65.00 C110.13,67.04 110.00,67.15 110.00,70.52 ZM 205.25 158.26 C203.19,159.07 199.81,160.04 197.75,160.41 L 194.00 161.09 L 194.00 137.82 L 198.25 138.53 C207.42,140.06 214.00,144.45 214.00,149.06 C214.00,151.81 209.43,156.61 205.25,158.26 ZM 190.78 149.07 C190.62,155.53 190.07,160.43 189.50,160.56 C187.71,160.97 181.06,159.07 177.02,157.01 C165.59,151.18 170.89,141.14 186.78,138.52 L 191.07 137.81 ZM 69.00 98.57 C69.00,98.94 72.06,96.35 75.80,92.82 C80.26,88.62 85.78,84.77 91.80,81.66 C100.25,77.29 101.00,76.67 101.00,73.95 C101.00,72.33 100.76,71.00 100.46,71.00 C99.29,71.00 91.22,75.47 86.00,79.01 C78.09,84.37 69.00,94.83 69.00,98.57 ZM 306.52 90.86 C310.36,94.15 313.86,96.88 314.31,96.93 C315.88,97.07 311.42,90.69 306.26,85.41 C301.31,80.36 287.03,71.00 284.27,71.00 C283.54,71.00 283.00,72.21 283.00,73.84 C283.00,76.39 283.82,77.08 291.27,80.77 C295.81,83.02 302.68,87.56 306.52,90.86 Z" fill="rgb(1,1,1)"/>
<path d="M 0.00 151.50 L 0.00 0.00 L 190.50 0.00 L 381.00 0.00 L 381.00 151.50 L 381.00 303.00 L 190.50 303.00 L 0.00 303.00 L 0.00 151.50 ZM 234.00 288.99 C313.40,279.88 363.08,250.59 369.96,208.83 C371.54,199.21 376.32,128.32 376.42,113.00 C376.49,101.33 376.18,98.55 374.14,92.50 C369.20,77.82 357.09,62.17 342.11,51.09 C318.00,33.29 281.22,21.39 234.80,16.40 C204.00,13.09 155.16,14.51 125.65,19.58 C73.88,28.47 33.65,50.12 16.90,78.09 C8.65,91.88 6.18,104.09 7.91,122.48 C8.53,129.09 10.16,151.11 11.54,171.41 C13.03,193.58 14.66,210.75 15.60,214.41 C19.69,230.26 31.62,245.41 49.50,257.45 C68.74,270.40 96.91,280.42 129.50,285.92 C139.92,287.67 147.03,288.48 169.00,290.40 C177.21,291.12 224.34,290.10 234.00,288.99 ZM 166.00 277.36 C164.07,277.17 157.59,276.54 151.60,275.96 C131.96,274.06 112.28,270.04 94.25,264.24 L 86.00 261.59 L 86.00 248.19 C86.00,237.24 86.25,234.88 87.37,235.31 C90.69,236.58 103.20,240.09 111.00,241.94 C129.37,246.28 148.98,248.80 178.28,250.59 L 188.06 251.19 L 187.78 264.35 L 187.50 277.50 L 178.50 277.61 C173.55,277.67 167.93,277.56 166.00,277.36 ZM 197.00 264.66 C197.00,254.40 197.31,251.00 198.25,251.00 C206.33,250.97 235.57,248.49 246.50,246.91 C266.30,244.05 278.76,241.23 297.25,235.42 C298.86,234.91 299.00,235.95 299.00,247.98 L 299.00 261.10 L 295.57 262.53 C278.55,269.64 241.57,276.28 211.25,277.66 L 197.00 278.31 L 197.00 264.66 ZM 307.67 257.33 C307.30,256.97 307.00,251.13 307.00,244.36 L 307.00 232.04 L 317.62 227.04 C330.52,220.95 342.23,213.28 351.25,205.01 L 358.00 198.82 L 358.00 202.23 C358.00,206.53 355.47,215.13 352.45,221.10 C348.80,228.30 339.84,238.08 331.30,244.18 C322.04,250.80 308.60,258.27 307.67,257.33 ZM 65.90 252.17 C48.86,242.62 37.54,231.89 31.42,219.50 C28.31,213.19 25.06,200.61 26.24,199.43 C26.49,199.17 28.68,200.80 31.10,203.05 C41.88,213.08 53.70,220.85 68.35,227.55 L 76.98 231.50 L 76.99 244.25 C77.00,253.79 76.69,257.00 75.75,257.00 C75.06,257.00 70.63,254.82 65.90,252.17 ZM 164.50 236.92 C141.54,234.99 114.72,230.02 97.04,224.43 L 86.00 220.93 L 86.00 208.35 C86.00,195.82 86.01,195.77 88.25,196.27 C89.49,196.55 96.57,198.36 104.00,200.29 C124.04,205.51 154.16,209.97 169.60,209.99 C172.96,210.00 178.49,210.29 181.88,210.65 L 188.06 211.29 L 187.78 224.40 L 187.50 237.50 L 181.00 237.63 C177.43,237.70 170.00,237.38 164.50,236.92 ZM 197.00 224.78 L 197.00 211.28 L 203.15 210.64 C206.53,210.29 212.04,210.00 215.40,210.00 C230.33,210.00 260.81,205.48 280.91,200.30 C288.38,198.37 295.51,196.56 296.75,196.28 C298.99,195.77 299.00,195.82 299.00,208.30 L 299.00 220.84 L 291.25 223.38 C268.33,230.89 240.22,235.73 208.75,237.58 L 197.00 238.27 L 197.00 224.78 ZM 65.43 211.63 C51.88,204.53 46.68,200.86 38.78,192.78 C30.52,184.33 25.43,174.58 24.05,164.54 C23.52,160.71 23.30,157.37 23.55,157.12 C23.80,156.87 27.26,159.83 31.25,163.69 C39.99,172.16 52.31,180.36 66.49,187.13 L 77.00 192.15 L 77.00 204.02 C77.00,210.54 76.64,216.10 76.21,216.37 C75.77,216.64 70.92,214.51 65.43,211.63 ZM 307.00 204.70 L 307.00 192.40 L 317.57 187.54 C330.53,181.58 343.17,173.31 352.66,164.58 C356.60,160.96 360.15,158.00 360.55,158.00 C361.78,158.00 360.10,168.66 357.98,174.33 C353.87,185.31 345.20,195.40 332.49,203.99 C325.46,208.75 309.94,217.00 308.02,217.00 C307.38,217.00 307.00,212.41 307.00,204.70 ZM 162.50 196.91 C156.45,196.45 145.20,195.16 137.50,194.04 C117.32,191.13 89.35,183.98 88.89,181.62 C88.79,181.13 92.49,176.53 97.11,171.39 C106.76,160.65 104.13,161.15 124.00,166.30 C139.09,170.21 156.60,172.72 175.45,173.67 L 188.06 174.31 L 187.78 185.91 L 187.50 197.50 L 180.50 197.63 C176.65,197.70 168.55,197.38 162.50,196.91 ZM 197.00 186.30 L 197.00 174.31 L 210.25 173.64 C231.76,172.55 251.90,169.28 270.81,163.79 L 278.13 161.67 L 286.92 171.09 C291.75,176.26 295.89,180.91 296.11,181.40 C296.94,183.31 274.12,189.61 254.50,192.89 C239.50,195.40 227.22,196.70 210.25,197.59 L 197.00 198.28 L 197.00 186.30 ZM 68.66 173.97 C39.97,159.45 22.74,139.60 20.71,118.75 L 20.25 114.00 L 38.62 114.00 L 57.00 114.00 L 57.00 116.87 C57.00,120.56 63.05,132.47 67.24,137.05 C72.82,143.14 81.16,149.35 89.80,153.84 L 98.11 158.16 L 91.19 165.33 C87.38,169.27 82.97,173.95 81.38,175.73 L 78.50 178.96 L 68.66 173.97 ZM 300.41 172.70 C297.15,169.29 292.74,164.62 290.61,162.33 L 286.75 158.16 L 293.12 154.96 C311.39,145.80 323.49,132.85 327.07,118.62 L 328.24 114.00 L 346.12 114.00 L 364.00 114.00 L 364.00 117.32 C364.00,121.75 361.41,130.25 357.99,137.02 C351.41,150.06 336.13,163.67 317.21,173.35 L 306.35 178.90 L 300.41 172.70 ZM 185.13 162.97 C174.71,160.81 168.00,155.31 168.00,148.94 C168.00,146.47 168.93,144.81 171.87,142.01 C175.49,138.56 178.97,137.13 187.75,135.46 C190.66,134.91 191.00,134.49 191.00,131.42 L 191.00 128.00 L 162.65 128.00 C135.58,128.00 134.23,128.09 132.50,130.00 C130.70,131.99 130.75,132.00 143.35,132.00 C150.31,132.00 156.00,132.22 156.00,132.49 C156.00,133.96 139.58,159.03 138.79,158.76 C137.19,158.23 137.82,156.85 144.56,146.00 L 151.08 135.50 L 139.39 135.22 C128.50,134.95 127.54,135.09 125.35,137.14 C121.94,140.34 122.40,141.00 128.04,141.00 C133.96,141.00 133.89,141.32 126.23,149.78 L 121.46 155.05 L 117.48 153.60 L 113.50 152.14 L 117.04 152.07 C119.97,152.01 121.22,151.23 124.34,147.50 L 128.10 143.00 L 123.25 143.00 C118.92,143.00 118.00,143.42 114.50,147.00 C110.88,150.70 108.00,152.12 108.00,150.19 C108.00,149.75 113.81,143.90 120.92,137.19 L 133.84 125.00 L 192.29 125.00 L 250.73 125.00 L 263.12 136.79 C269.93,143.28 275.65,149.00 275.83,149.52 C276.63,151.82 273.97,150.72 269.77,147.03 C266.02,143.72 264.46,143.00 261.10,143.00 C258.84,143.00 257.00,143.36 257.00,143.80 C257.00,144.24 258.71,146.26 260.79,148.30 C263.63,151.06 265.46,152.02 268.04,152.07 L 271.50 152.14 L 267.50 153.63 L 263.50 155.12 L 257.27 148.31 L 251.03 141.50 L 255.77 141.19 C261.77,140.80 262.62,139.93 259.66,137.15 C257.46,135.08 256.52,134.95 245.32,135.22 L 233.33 135.50 L 240.17 146.41 C243.92,152.41 247.00,157.69 247.00,158.16 C247.00,160.65 244.44,158.19 240.33,151.75 C237.79,147.76 233.97,141.80 231.84,138.50 L 227.99 132.50 L 240.62 132.22 C253.12,131.94 253.23,131.92 251.47,129.97 C249.78,128.10 248.27,128.00 221.85,128.00 L 194.00 128.00 L 194.00 131.50 C194.00,133.43 194.16,135.00 194.36,135.00 C197.63,135.00 206.36,137.61 209.77,139.60 C214.62,142.45 217.43,147.42 216.44,151.39 C215.58,154.82 210.15,159.68 205.27,161.41 C199.66,163.39 190.53,164.10 185.13,162.97 ZM 190.78 149.07 L 191.07 137.81 L 186.78 138.52 C170.89,141.14 165.59,151.18 177.02,157.01 C181.06,159.07 187.71,160.97 189.50,160.56 C190.07,160.43 190.62,155.53 190.78,149.07 ZM 205.25 158.26 C209.43,156.61 214.00,151.81 214.00,149.06 C214.00,144.45 207.42,140.06 198.25,138.53 L 194.00 137.82 L 194.00 149.46 L 194.00 161.09 L 197.75 160.41 C199.81,160.04 203.19,159.07 205.25,158.26 ZM 78.16 132.66 C75.32,129.79 73.00,126.93 73.00,126.32 C73.00,124.40 84.61,115.03 92.66,110.44 C113.75,98.42 141.82,92.45 182.50,91.32 C242.35,89.67 286.88,100.67 307.85,122.29 L 312.20 126.78 L 308.43 130.94 C302.36,137.66 301.77,137.74 295.48,132.61 C281.05,120.86 261.55,113.69 232.00,109.29 C215.55,106.84 169.30,106.86 152.68,109.33 C123.04,113.74 101.03,121.97 88.30,133.42 L 83.33 137.89 L 78.16 132.66 ZM 21.42 100.77 C24.26,82.88 42.47,63.53 68.57,50.67 C82.05,44.03 80.66,43.94 89.37,52.07 C93.57,55.99 97.00,59.55 97.00,59.98 C97.00,60.41 94.53,61.97 91.51,63.45 C82.57,67.82 74.53,73.66 68.56,80.11 C62.25,86.92 59.57,91.61 57.62,99.25 L 56.27 104.50 L 38.51 104.77 L 20.74 105.05 L 21.42 100.77 ZM 327.98 102.43 C327.44,101.02 327.00,99.46 327.00,98.96 C327.00,98.46 325.94,95.68 324.65,92.78 C319.74,81.76 308.83,71.49 294.01,63.96 L 287.04 60.42 L 294.90 52.60 C304.02,43.53 302.35,43.60 318.00,51.61 C341.12,63.43 356.49,79.23 362.01,96.85 C363.10,100.34 363.75,103.60 363.44,104.10 C363.13,104.59 355.25,105.00 345.92,105.00 L 328.95 105.00 L 327.98 102.43 ZM 69.00 98.57 C69.00,94.83 78.09,84.37 86.00,79.01 C91.22,75.47 99.29,71.00 100.46,71.00 C100.76,71.00 101.00,72.33 101.00,73.95 C101.00,76.67 100.25,77.29 91.80,81.66 C85.78,84.77 80.26,88.62 75.80,92.82 C72.06,96.35 69.00,98.94 69.00,98.57 ZM 306.52 90.86 C302.68,87.56 295.81,83.02 291.27,80.77 C283.82,77.08 283.00,76.39 283.00,73.84 C283.00,72.21 283.54,71.00 284.27,71.00 C287.03,71.00 301.31,80.36 306.26,85.41 C311.42,90.69 315.88,97.07 314.31,96.93 C313.86,96.88 310.36,94.15 306.52,90.86 ZM 110.00 70.52 C110.00,67.15 110.13,67.04 116.75,65.00 C132.18,60.23 156.32,56.66 179.80,55.67 L 188.10 55.32 L 187.80 58.91 L 187.50 62.50 L 172.50 63.15 C151.28,64.07 124.42,68.45 112.75,72.90 C110.08,73.92 110.00,73.85 110.00,70.52 ZM 262.50 70.33 C248.40,66.60 230.45,64.00 213.28,63.22 L 197.50 62.50 L 197.19 58.76 L 196.88 55.02 L 201.19 55.48 C203.56,55.73 210.66,56.19 216.96,56.50 C234.80,57.37 256.44,61.07 270.25,65.60 C274.48,66.99 275.00,67.48 275.00,70.08 C275.00,73.59 274.79,73.59 262.50,70.33 ZM 98.62 49.12 C92.11,42.57 91.08,41.12 92.63,40.67 C93.66,40.37 97.65,39.22 101.50,38.11 C119.90,32.80 147.36,28.78 174.29,27.47 L 188.08 26.79 L 187.79 35.65 L 187.50 44.50 L 181.00 44.74 C169.40,45.18 150.72,46.99 141.00,48.62 C132.25,50.08 111.53,54.98 107.99,56.42 C106.98,56.83 103.89,54.42 98.62,49.12 ZM 272.50 55.30 C259.82,50.65 233.41,46.34 211.49,45.35 L 197.00 44.69 L 197.00 35.84 L 197.00 27.00 L 199.75 27.01 C209.50,27.04 237.52,29.34 249.15,31.06 C262.49,33.03 282.53,37.49 290.25,40.21 L 294.00 41.53 L 286.11 49.26 C281.78,53.52 277.84,56.95 277.36,56.88 C276.89,56.82 274.70,56.11 272.50,55.30 Z" fill="rgb(254,254,254)"/>
</g>
</svg>